<svg width="24" height="24" viewBox="0 0 24 24" fill="none" xmlns="http://www.w3.org/2000/svg">
<path d="M23.1562 11.2437L11.35 0.996875C11.2594 0.91875 11.1438 0.875 11.0219 0.875H8.25625C8.025 0.875 7.91875 1.1625 8.09375 1.3125L19.0375 10.8125H0.75C0.6125 10.8125 0.5 10.925 0.5 11.0625V12.9375C0.5 13.075 0.6125 13.1875 0.75 13.1875H19.0344L8.09062 22.6875C7.91562 22.8406 8.02188 23.125 8.25313 23.125H11.1125C11.1719 23.125 11.2312 23.1031 11.275 23.0625L23.1562 12.7562C23.2644 12.6622 23.3512 12.546 23.4106 12.4155C23.4701 12.2851 23.5008 12.1434 23.5008 12C23.5008 11.8566 23.4701 11.7149 23.4106 11.5845C23.3512 11.454 23.2644 11.3378 23.1562 11.2437Z" fill="#FFF3E0"/>
</svg>
