<svg width="36" height="36" viewBox="0 0 36 36" fill="none" xmlns="http://www.w3.org/2000/svg">
	<path d="M19.8211 18L29.0496 6.99961C29.2043 6.8168 29.0743 6.53906 28.8352 6.53906H26.0297C25.8645 6.53906 25.7063 6.61289 25.5973 6.73945L17.986 15.8133L10.3746 6.73945C10.2692 6.61289 10.111 6.53906 9.94222 6.53906H7.13676C6.89769 6.53906 6.76762 6.8168 6.9223 6.99961L16.1508 18L6.9223 29.0004C6.88765 29.0411 6.86542 29.091 6.85825 29.144C6.85108 29.197 6.85927 29.2509 6.88185 29.2994C6.90443 29.3479 6.94045 29.3889 6.98563 29.4175C7.03082 29.4462 7.08327 29.4612 7.13676 29.4609H9.94222C10.1075 29.4609 10.2657 29.3871 10.3746 29.2605L17.986 20.1867L25.5973 29.2605C25.7028 29.3871 25.861 29.4609 26.0297 29.4609H28.8352C29.0743 29.4609 29.2043 29.1832 29.0496 29.0004L19.8211 18Z" fill="#FFF3E0" />
</svg>