<svg width="126" height="113" viewBox="0 0 126 113" fill="none" xmlns="http://www.w3.org/2000/svg">
<g clip-path="url(#clip0)">
<path fill-rule="evenodd" clip-rule="evenodd" d="M7.99233 -47.9205C33.6212 -52.2869 60.2135 -66.3315 83.7828 -56.6855C107.84 -46.8397 125.303 -22.8259 124.996 -0.0351791C124.699 21.9806 92.7263 32.9439 82.302 53.0791C73.6306 69.8284 86.6811 93.908 70.2638 105.683C53.9652 117.374 28.863 109.926 7.99233 106.378C-9.32683 103.434 -24.7427 96.5912 -38.5508 87.1859C-51.7914 78.167 -59.8368 65.9588 -69.1153 53.8559C-82.4091 36.5153 -109.182 21.5633 -104.445 1.23252C-99.8093 -18.6666 -69.7571 -24.8868 -48.6176 -34.1281C-30.7108 -41.9562 -11.7337 -44.5597 7.99233 -47.9205Z" fill="#069EA9"/>
</g>
<defs>
<clipPath id="clip0">
<rect width="126" height="113" fill="white"/>
</clipPath>
</defs>
</svg>
