<svg width="270" height="225" viewBox="0 0 270 225" fill="none" xmlns="http://www.w3.org/2000/svg">
<g clip-path="url(#clip0)">
<path fill-rule="evenodd" clip-rule="evenodd" d="M40.935 -309.846C113.729 -324.361 189.26 -371.047 256.205 -338.982C324.535 -306.253 374.137 -226.428 373.264 -150.669C372.42 -77.4854 281.607 -41.0421 251.999 25.8898C227.369 81.567 264.437 161.611 217.806 200.753C171.513 239.613 100.214 214.855 40.935 203.062C-8.25702 193.275 -52.0432 170.53 -91.2625 139.265C-128.87 109.286 -151.722 68.7039 -178.076 28.472C-215.835 -29.1703 -291.877 -78.8726 -278.424 -146.455C-265.257 -212.602 -179.899 -233.279 -119.856 -263.998C-68.9945 -290.02 -15.0933 -298.674 40.935 -309.846Z" fill="#069EA9"/>
</g>
<defs>
<clipPath id="clip0">
<rect width="270" height="225" fill="white"/>
</clipPath>
</defs>
</svg>
