<svg width="190" height="130" viewBox="0 0 190 130" fill="none" xmlns="http://www.w3.org/2000/svg">
<path fill-rule="evenodd" clip-rule="evenodd" d="M-99.3384 109.564C-107.006 85.5412 -132.108 60.4705 -114.537 38.5858C-96.603 16.248 -53.1861 0.289277 -12.1137 0.92325C27.5622 1.53566 47.0687 31.5888 83.2752 41.6391C113.394 49.9994 156.894 38.1666 177.987 53.6918C198.927 69.1046 185.306 92.4557 178.747 111.911C173.305 128.055 160.851 142.361 143.791 155.125C127.433 167.364 105.367 174.699 83.481 183.188C52.1239 195.351 24.9655 220.149 -11.6386 215.413C-47.4654 210.777 -58.4388 182.591 -74.9273 162.69C-88.8944 145.833 -93.437 128.054 -99.3384 109.564Z" fill="#086779"/>
</svg>
