<svg width="305" height="295" viewBox="0 0 305 295" fill="none" xmlns="http://www.w3.org/2000/svg">
<g clip-path="url(#clip0)">
<path fill-rule="evenodd" clip-rule="evenodd" d="M-238.1 297.541C-247.628 223.928 -289.066 145.395 -252.52 80.7881C-215.217 14.8429 -132.202 -29.2118 -56.6777 -23.1852C16.2788 -17.3636 46.458 75.7187 111.22 109.813C165.092 138.174 247.473 106.639 283.352 155.825C318.971 204.656 289.419 274.104 273.619 332.444C260.507 380.856 234.836 422.993 200.975 459.994C168.505 495.474 126.462 515.511 84.5305 539.066C24.4523 572.815 -30.3093 645.299 -96.8195 627.279C-161.917 609.64 -176.738 523.073 -203.3 461.079C-225.8 408.565 -230.767 354.2 -238.1 297.541Z" fill="#086779"/>
</g>
<defs>
<clipPath id="clip0">
<rect width="305" height="295" fill="white"/>
</clipPath>
</defs>
</svg>
