<svg width="720" height="285" viewBox="0 0 720 285" fill="none" xmlns="http://www.w3.org/2000/svg">
<g clip-path="url(#clip0)">
<path fill-rule="evenodd" clip-rule="evenodd" d="M407.755 61.1839C500.242 40.8748 596.205 -24.4487 681.26 20.4165C768.075 66.2108 831.095 177.903 829.986 283.906C828.914 386.305 713.534 437.297 675.916 530.949C644.623 608.853 691.719 720.851 632.474 775.62C573.657 829.993 483.071 795.351 407.755 778.85C345.255 765.156 289.624 733.331 239.795 689.586C192.014 647.637 162.98 590.855 129.497 534.562C81.5237 453.908 -15.0904 384.364 2.0022 289.802C18.7318 197.248 127.181 168.317 203.467 125.335C268.087 88.9247 336.57 76.8154 407.755 61.1839Z" fill="#578470"/>
</g>
<defs>
<clipPath id="clip0">
<rect width="720" height="285" fill="white"/>
</clipPath>
</defs>
</svg>
