<svg width="64" height="21" viewBox="0 0 64 21" fill="none" xmlns="http://www.w3.org/2000/svg">
<path d="M38.7295 17H32.1602V16.0225L34.792 13.377C35.5941 12.5658 36.1227 11.987 36.3779 11.6406C36.6331 11.2943 36.8245 10.957 36.9521 10.6289C37.0798 10.3008 37.1436 9.94759 37.1436 9.56934C37.1436 9.03613 36.9818 8.61458 36.6582 8.30469C36.3346 7.99023 35.8857 7.83301 35.3115 7.83301C34.8968 7.83301 34.5026 7.90137 34.1289 8.03809C33.7598 8.1748 33.3473 8.42318 32.8916 8.7832L32.29 8.01074C33.2106 7.24512 34.2132 6.8623 35.2979 6.8623C36.2367 6.8623 36.9727 7.10384 37.5059 7.58691C38.0391 8.06543 38.3057 8.71029 38.3057 9.52148C38.3057 10.1549 38.1279 10.7816 37.7725 11.4014C37.417 12.0212 36.7516 12.805 35.7764 13.7529L33.5889 15.8926V15.9473H38.7295V17ZM46.7959 11.9893C46.7959 13.7165 46.5225 15.0062 45.9756 15.8584C45.4333 16.7106 44.6016 17.1367 43.4805 17.1367C42.4049 17.1367 41.5869 16.7015 41.0264 15.8311C40.4658 14.9561 40.1855 13.6755 40.1855 11.9893C40.1855 10.2484 40.4567 8.95638 40.999 8.11328C41.5413 7.27018 42.3685 6.84863 43.4805 6.84863C44.5651 6.84863 45.3877 7.28841 45.9482 8.16797C46.5133 9.04753 46.7959 10.3213 46.7959 11.9893ZM41.334 11.9893C41.334 13.443 41.5049 14.5026 41.8467 15.168C42.1885 15.8288 42.7331 16.1592 43.4805 16.1592C44.237 16.1592 44.7839 15.8242 45.1211 15.1543C45.4629 14.4798 45.6338 13.4248 45.6338 11.9893C45.6338 10.5537 45.4629 9.50326 45.1211 8.83789C44.7839 8.16797 44.237 7.83301 43.4805 7.83301C42.7331 7.83301 42.1885 8.16341 41.8467 8.82422C41.5049 9.48047 41.334 10.5355 41.334 11.9893ZM54.7529 17H48.1836V16.0225L50.8154 13.377C51.6175 12.5658 52.1462 11.987 52.4014 11.6406C52.6566 11.2943 52.848 10.957 52.9756 10.6289C53.1032 10.3008 53.167 9.94759 53.167 9.56934C53.167 9.03613 53.0052 8.61458 52.6816 8.30469C52.3581 7.99023 51.9092 7.83301 51.335 7.83301C50.9202 7.83301 50.526 7.90137 50.1523 8.03809C49.7832 8.1748 49.3708 8.42318 48.915 8.7832L48.3135 8.01074C49.234 7.24512 50.2367 6.8623 51.3213 6.8623C52.2601 6.8623 52.9961 7.10384 53.5293 7.58691C54.0625 8.06543 54.3291 8.71029 54.3291 9.52148C54.3291 10.1549 54.1514 10.7816 53.7959 11.4014C53.4404 12.0212 52.7751 12.805 51.7998 13.7529L49.6123 15.8926V15.9473H54.7529V17ZM60.3994 17H59.292V9.87695C59.292 9.28451 59.3102 8.72396 59.3467 8.19531C59.251 8.29102 59.1439 8.39128 59.0254 8.49609C58.9069 8.60091 58.3646 9.04525 57.3984 9.8291L56.7969 9.0498L59.4424 7.00586H60.3994V17Z" fill="#FFF3E0"/>
<path fill-rule="evenodd" clip-rule="evenodd" d="M18.9163 12.9664C18.7989 14.8831 17.9772 16.5998 16.7028 17.8665C15.3109 19.2331 13.416 20.0831 11.303 20.0831C10.5484 20.0831 9.82735 19.9665 9.13981 19.7665C6.70826 18.4498 5.0481 15.8998 4.98102 12.9664H18.9163Z" fill="#052033"/>
<path fill-rule="evenodd" clip-rule="evenodd" d="M8.26849 10.45C7.4971 10.45 6.85819 9.83332 6.85819 9.04998C6.85819 8.26664 7.4971 7.63331 8.26849 7.63331C9.05665 7.63331 9.69388 8.26664 9.69388 9.04998C9.69388 9.83332 9.05665 10.45 8.26849 10.45ZM15.4625 5.0833C16.1484 5.46663 16.7873 5.94997 17.339 6.49997C17.9595 7.09997 18.4642 7.79998 18.865 8.54998V8.56665L18.8499 8.58331V8.59998L18.8332 8.64998L18.8164 8.66665L18.7979 8.71665V8.73331L18.7828 8.74998V8.76665L18.7309 8.86665V8.88331L18.7141 8.89998V8.91665L18.699 8.93331V8.96665L18.6822 8.98331V9.01665L18.6319 9.09998V9.13331L18.5967 9.19998L18.5481 9.34998V9.36665H18.5296V9.41665L18.5129 9.43332V9.44998L18.4978 9.46665L18.4642 9.58332V9.61665L18.4307 9.68332V9.71665L18.4139 9.73332C18.0266 8.74998 17.4413 7.88331 16.7018 7.14997C15.3099 5.7833 13.415 4.9333 11.3037 4.9333H11.2199C7.86603 5.69997 5.31541 8.54998 4.99847 12.0333H18.9489V11.8L18.9673 11.7833V11.6167L18.9841 11.55V11.4667L18.9992 11.45L19.0159 11.2667V11.2333L19.0344 11.2167V11.1333L19.0512 11.1V11.0667L19.083 10.9V10.85L19.1015 10.8167V10.7833L19.1182 10.75V10.6833L19.1333 10.6667V10.6333L19.1501 10.6V10.5333H19.1685V10.4667L19.1853 10.4333V10.4167L19.2021 10.3833V10.35L19.2172 10.3167V10.2833L19.2356 10.2667V10.2333L19.2524 10.2V10.1667L19.2692 10.15V10.1L19.2843 10.0833V10.05L19.3027 10.0167V9.99998L19.3195 9.98332V9.93332L19.3362 9.91665L19.3513 9.88332V9.83332L19.3681 9.79998L19.3865 9.78332V9.74998C19.5375 9.33331 19.7219 8.91665 19.9399 8.53331C18.917 6.89997 17.339 5.64997 15.4625 5.0833Z" fill="#052033"/>
<path fill-rule="evenodd" clip-rule="evenodd" d="M20.0739 16.7334C18.7139 19.1 16.1835 20.7167 13.2488 20.7834C14.8235 20.4167 16.2338 19.6167 17.3573 18.5167C18.2629 17.6 18.9672 16.5 19.3864 15.2667C19.5692 15.7834 19.7872 16.2667 20.0739 16.7334Z" fill="#052033"/>
<path fill-rule="evenodd" clip-rule="evenodd" d="M21.1469 12.7499C21.1469 13.7999 20.9456 14.7999 20.5767 15.7C20.1072 14.7333 19.8539 13.6499 19.8539 12.4999C19.8539 11.4499 20.0736 10.4499 20.4593 9.53326C20.9121 10.5166 21.1469 11.5999 21.1469 12.7499Z" fill="#052033"/>
<path fill-rule="evenodd" clip-rule="evenodd" d="M20.5767 15.7C20.9456 16.4833 21.4487 17.2 22.0524 17.8167C21.9015 18.1 21.7505 18.3833 21.5828 18.65L21.4319 18.5167C20.9121 17.9833 20.4425 17.3833 20.0736 16.7333C19.7868 16.2666 19.5688 15.7833 19.3861 15.2666C18.9668 16.5 18.2625 17.6 17.357 18.5167C16.2334 19.6167 14.8231 20.4167 13.2485 20.7833C12.628 20.9167 11.974 21 11.3033 21C8.93879 21 6.80909 20.05 5.26631 18.5167C4.02538 17.2833 3.17015 15.7 2.86662 13.9166H3.80738C4.10923 15.45 4.84708 16.8 5.92031 17.8667C6.80909 18.75 7.89741 19.4167 9.14002 19.7667C9.82756 19.9667 10.5486 20.0833 11.3033 20.0833C13.4145 20.0833 15.3094 19.2333 16.7013 17.8667C17.9774 16.6 18.7975 14.8833 18.9165 12.9666H2.76769C2.76769 12.8166 2.75092 12.6666 2.75092 12.5C2.75092 10.1666 3.70509 8.03328 5.26631 6.49994C6.80909 4.9666 8.93879 3.99993 11.3033 3.99993C12.8125 3.99993 14.2379 4.39993 15.462 5.08327C16.1479 5.4666 16.7868 5.94994 17.3385 6.49994C17.959 7.09994 18.4637 7.79994 18.8645 8.54995V8.56661L18.8494 8.58328V8.59995L18.8327 8.64995L18.8159 8.66661L18.7975 8.71661V8.73328L18.7824 8.74995V8.76661L18.7304 8.86662V8.88328L18.7153 8.89995V8.91662L18.6985 8.93328V8.96661L18.6817 8.98328V9.01661L18.6314 9.09995V9.13328L18.5962 9.19995L18.5476 9.34995V9.36662H18.5291V9.41662L18.5141 9.43328V9.44995L18.4973 9.46662L18.4637 9.58328V9.61662L18.4302 9.68328V9.71662L18.4134 9.73328C18.0261 8.74995 17.4408 7.88328 16.7013 7.14994C15.3094 5.78327 13.4145 4.93326 11.3033 4.93326H11.2194C9.15511 4.94993 7.27695 5.79993 5.92031 7.14994C4.64585 8.41661 3.80738 10.1333 3.69 12.0333H18.9484V11.8L18.9668 11.7833V11.6166L18.9836 11.55V11.4666L19.0004 11.45L19.0155 11.2666V11.2333L19.0339 11.2166V11.1333L19.0507 11.1V11.0666L19.0825 10.9V10.85L19.101 10.8166V10.7833L19.1178 10.75V10.6833L19.1345 10.6666V10.6333L19.1496 10.6V10.5333H19.1681V10.4666L19.1848 10.4333V10.4166L19.2016 10.3833V10.35L19.2167 10.3166V10.2833L19.2351 10.2666V10.2333L19.2519 10.2V10.1666L19.2687 10.15V10.1L19.2838 10.0833V10.05L19.3022 10.0166V9.99995L19.319 9.98329V9.93329L19.3358 9.91662L19.3525 9.88329V9.83329L19.3676 9.79995L19.3861 9.78329V9.74995C19.537 9.33328 19.7214 8.91661 19.9394 8.53328C20.3251 7.78328 20.845 7.08327 21.4319 6.49994L21.5828 6.34994C21.7505 6.61661 21.9015 6.89994 22.0524 7.18327C21.3799 7.84994 20.845 8.64995 20.4593 9.53328C20.0736 10.45 19.8539 11.45 19.8539 12.5C19.8539 13.65 20.1071 14.7333 20.5767 15.7Z" fill="#FFF3E0"/>
<path fill-rule="evenodd" clip-rule="evenodd" d="M4.14318 5.46649C4.14318 6.2665 3.47241 6.93317 2.6658 6.93317C1.84579 6.93317 1.17334 6.2665 1.17334 5.46649C1.17334 4.64982 1.84579 3.98315 2.6658 3.98315C3.47241 3.98315 4.14318 4.64982 4.14318 5.46649Z" fill="#FFF3E0"/>
<path fill-rule="evenodd" clip-rule="evenodd" d="M5.38296 1.18324C5.38296 1.83324 4.86311 2.36658 4.21079 2.36658C3.53834 2.36658 3.01849 1.83324 3.01849 1.18324C3.01849 0.533236 3.53834 -9.9659e-05 4.21079 -9.9659e-05C4.86311 -9.9659e-05 5.38296 0.533236 5.38296 1.18324Z" fill="#FFF3E0"/>
<path fill-rule="evenodd" clip-rule="evenodd" d="M1.47571 2.09985C1.47571 2.51652 1.15877 2.84985 0.739532 2.84985C0.335389 2.84985 0 2.51652 0 2.09985C0 1.69985 0.335389 1.36651 0.739532 1.36651C1.15877 1.36651 1.47571 1.69985 1.47571 2.09985Z" fill="#FFF3E0"/>
<path fill-rule="evenodd" clip-rule="evenodd" d="M9.69326 9.04958C9.69326 9.83292 9.05603 10.4496 8.26787 10.4496C7.49649 10.4496 6.85925 9.83292 6.85925 9.04958C6.85925 8.26624 7.49649 7.6329 8.26787 7.6329C9.05603 7.6329 9.69326 8.26624 9.69326 9.04958Z" fill="#FFF3E0"/>
</svg>
