<svg width="566" height="126" viewBox="0 0 566 126" fill="none" xmlns="http://www.w3.org/2000/svg">
<g clip-path="url(#clip0)">
<path d="M96.4343 43.8005L73.7354 108.2C73.7354 108.2 73.7354 108.3 73.6349 108.4V108.5C73.5345 108.6 73.434 108.8 73.3336 108.8V108.9C73.2332 109.1 73.0323 109.2 72.9318 109.3L72.8314 109.4C72.731 109.5 72.6305 109.6 72.5301 109.6C72.4297 109.7 72.4297 109.7 72.3292 109.7C72.2288 109.8 72.1283 109.9 72.0279 109.9H71.9275C71.9275 109.9 71.9275 110 71.827 110C71.827 110 71.7266 110 71.6262 110.1H71.4253H70.5213H70.3205C70.22 110 70.1196 110 70.0191 110C70.0191 110 70.0191 109.9 69.9187 109.9C69.7178 109.9 69.6174 109.8 69.517 109.7C69.4165 109.7 69.4165 109.7 69.4165 109.6C69.3161 109.6 69.2156 109.5 69.1152 109.4L69.0148 109.3C68.8139 109.2 68.7134 109.1 68.613 108.9C68.5126 108.9 68.5126 108.9 68.5126 108.8C68.5126 108.8 68.4121 108.6 68.3117 108.5C68.3117 108.5 68.3117 108.4 68.2113 108.4V108.2L48.3246 51.7005L28.3374 108.2C28.3374 108.2 28.3374 108.3 28.237 108.4V108.5C28.1365 108.6 28.0361 108.8 27.9356 108.8V108.9C27.8352 109.1 27.7348 109.2 27.6343 109.3L27.5339 109.4C27.4335 109.5 27.333 109.6 27.2326 109.6C27.1321 109.7 27.0317 109.7 27.0317 109.7C26.9313 109.8 26.8308 109.9 26.63 109.9L26.5295 110C26.4291 110 26.3286 110 26.2282 110.1H26.0273H25.1234H25.0229C24.8221 110 24.7216 110 24.6212 110V109.9H24.5208C24.4203 109.9 24.3199 109.8 24.119 109.7C24.119 109.7 24.0186 109.7 24.0186 109.6C23.9181 109.6 23.8177 109.5 23.7173 109.4L23.6168 109.3C23.5164 109.2 23.4159 109.1 23.3155 108.9H23.2151V108.8C23.1146 108.8 23.0142 108.6 23.0142 108.5L22.9137 108.4C22.8133 108.3 22.8133 108.2 22.8133 108.2L0.214779 43.8005C-0.0865344 43.1005 -0.0865322 42.3005 0.31522 41.6005C0.616533 40.9005 1.21916 40.4005 1.92222 40.1005C2.72573 39.8005 3.42879 39.9005 4.23229 40.2005C4.93536 40.6005 5.43755 41.1005 5.73887 41.9005L25.5251 98.3005L45.5123 41.9005L45.6127 41.8005C45.6127 41.7005 45.6127 41.6005 45.7132 41.5005C45.7132 41.4005 45.8136 41.3005 45.8136 41.3005C45.914 41.2005 45.914 41.1005 46.0145 41.0005C46.1149 40.9005 46.1149 40.9005 46.2154 40.8005C46.3158 40.8005 46.3158 40.7005 46.4162 40.6005C46.5167 40.6005 46.5167 40.5005 46.6171 40.4005C46.7175 40.4005 46.818 40.3005 46.9184 40.3005C47.0189 40.3005 47.0189 40.2005 47.1193 40.2005C47.2197 40.2005 47.2197 40.1005 47.3202 40.1005H47.4206C47.521 40.1005 47.6215 40.0005 47.7219 40.0005H48.0232H48.3246H48.5254H48.8267C48.9272 40.0005 49.0276 40.1005 49.1281 40.1005H49.2285H49.3289C49.3289 40.1005 49.3289 40.2005 49.4294 40.2005C49.5298 40.2005 49.6302 40.3005 49.6302 40.3005C49.7307 40.4005 49.8311 40.4005 49.9316 40.4005C49.9316 40.5005 50.032 40.6005 50.1324 40.6005C50.2329 40.7005 50.2329 40.8005 50.3333 40.8005C50.4337 40.9005 50.4337 41.0005 50.5342 41.0005C50.6346 41.1005 50.6346 41.2005 50.6346 41.3005C50.7351 41.3005 50.8355 41.4005 50.8355 41.5005C50.9359 41.6005 50.9359 41.7005 50.9359 41.8005L51.0364 41.9005L70.9231 98.3005L90.8098 41.9005C91.1111 41.1005 91.6133 40.6005 92.4168 40.2005C93.1199 39.9005 93.8229 39.8005 94.6264 40.1005C95.3295 40.4005 95.9321 40.9005 96.3339 41.6005C96.6352 42.3005 96.6352 43.1005 96.4343 43.8005Z" fill="#FFF3E0"/>
<path d="M452.886 42.9994V107.099C452.886 107.999 452.595 108.599 451.982 109.199C451.389 109.799 450.777 110.099 449.873 110.099C449.069 110.099 448.366 109.799 447.764 109.199C447.261 108.599 446.96 107.999 446.96 107.099V77.9994H417.733C417.833 76.5994 417.944 75.1994 417.944 73.7994V72.0994H446.96V42.9994C446.96 42.1994 447.261 41.4994 447.764 40.9994C448.366 40.3994 449.069 40.0994 449.873 40.0994C450.777 40.0994 451.389 40.3994 451.982 40.9994C452.595 41.4994 452.886 42.1994 452.886 42.9994Z" fill="#FFF3E0"/>
<path d="M512.246 105.1C512.859 105.6 513.15 106.3 513.15 107.1C513.15 108 512.859 108.6 512.246 109.2C511.643 109.8 510.94 110.1 510.237 110.1H471.268C470.464 110.1 469.771 109.8 469.158 109.2C468.556 108.6 468.254 108 468.254 107.1V42.8998C468.254 42.0998 468.556 41.3998 469.158 40.7998C469.771 40.1998 470.464 39.8998 471.268 39.9998L510.237 40.0998C510.94 40.0998 511.643 40.2998 512.246 40.8998C512.859 41.4998 513.15 42.1998 513.15 42.9998C513.15 43.7998 512.859 44.4998 512.246 45.0998C511.643 45.5998 510.94 45.8998 510.237 45.8998L474.18 45.7998V72.0998H501.098C501.901 72.0998 502.604 72.3998 503.207 72.9998C503.709 73.4998 504.01 74.1998 504.01 74.9998C504.01 75.7998 503.709 76.4998 503.207 77.0998C502.604 77.6998 501.901 77.8998 501.098 77.8998H474.18V104.2H510.237C510.94 104.2 511.643 104.5 512.246 105.1Z" fill="#FFF3E0"/>
<path d="M565.976 90.4013C565.685 95.9013 563.465 100.601 559.247 104.401C555.029 108.201 550.117 110.101 544.181 110.101C539.059 110.101 534.439 109.001 530.431 106.901C525.51 104.301 522.386 100.601 521.181 95.8013C520.99 95.0013 521.081 94.3013 521.482 93.6013C521.884 92.9013 522.497 92.4013 523.29 92.3013C523.993 92.1013 524.797 92.2013 525.51 92.6013C526.203 93.0013 526.605 93.6013 526.816 94.3013C527.709 97.7013 529.919 100.301 533.635 102.101C536.759 103.501 540.264 104.301 544.181 104.301C548.51 104.301 552.226 102.901 555.239 100.201C558.343 97.4013 559.95 94.1013 560.161 90.2013C560.261 87.3013 559.247 84.8013 557.248 82.6013C554.336 79.6013 549.816 78.0013 543.589 77.9013H543.378H543.277C535.453 77.8013 529.517 75.7013 525.6 71.5013C522.386 68.1013 520.89 64.1013 521.081 59.7013C521.291 54.2013 523.591 49.5013 527.81 45.7013C531.928 41.9013 536.95 40.0013 542.876 40.0013C548.008 40.0013 552.628 41.1013 556.636 43.2013C561.567 45.8013 564.57 49.5013 565.876 54.3013C566.087 55.1013 565.976 55.8013 565.585 56.5013C565.183 57.2013 564.57 57.6013 563.767 57.8013C562.963 58.1013 562.27 58.0013 561.567 57.5013C560.854 57.1013 560.452 56.6013 560.261 55.8013C559.357 52.4013 557.037 49.8013 553.422 48.1013C550.308 46.6013 546.803 45.8013 542.876 45.8013C538.567 45.8013 534.841 47.2013 531.837 49.9013C528.714 52.7013 527.117 56.0013 526.906 60.0013C526.816 62.8013 527.709 65.3013 529.819 67.4013C532.641 70.5013 537.261 72.1013 543.488 72.1013H543.679C551.523 72.3013 557.439 74.4013 561.467 78.7013C564.671 82.0013 566.187 85.9013 565.976 90.4013Z" fill="#FFF3E0"/>
<path d="M149.969 105.1C150.572 105.7 150.873 106.4 150.873 107.2C150.873 108 150.572 108.7 149.969 109.2C149.467 109.8 148.764 110.1 147.961 110.1H108.991C108.187 110.1 107.484 109.8 106.882 109.2C106.379 108.7 106.078 108 106.078 107.2V42.8998C106.078 42.0998 106.379 41.3998 106.882 40.8998C107.484 40.2998 108.187 39.9998 108.991 39.9998L147.961 40.0998C148.764 40.0998 149.467 40.3998 149.969 40.9998C150.572 41.5998 150.873 42.1998 150.873 42.9998C150.873 43.7998 150.572 44.4998 149.969 45.0998C149.467 45.6998 148.764 45.8998 147.961 45.8998H111.903V72.0998H138.821C139.624 72.0998 140.327 72.3998 140.93 72.9998C141.533 73.5998 141.834 74.1998 141.834 74.9998C141.834 75.8998 141.533 76.4998 140.93 77.0998C140.327 77.6998 139.624 77.9998 138.821 77.9998H111.903V104.2H147.961C148.764 104.2 149.467 104.5 149.969 105.1Z" fill="#FFF3E0"/>
<path d="M198.579 100.401C195.666 103.001 192.151 104.201 188.133 104.201H167.142V78.1013H188.234C192.352 78.1013 195.766 79.4013 198.679 81.9013C201.491 84.4013 202.898 87.4013 202.898 91.1013C202.898 94.7013 201.491 97.8013 198.579 100.401ZM167.142 46.0013L186.827 45.9013C190.945 45.9013 194.461 47.2013 197.273 49.6013C200.186 52.1013 201.592 55.2013 201.592 58.8013C201.592 62.5013 200.186 65.7013 197.273 68.3013C194.36 70.9013 190.945 72.3013 186.827 72.3013H167.142V46.0013ZM206.011 81.4013C204.203 78.6013 201.692 76.4013 198.478 74.7013C201.29 72.9013 203.4 70.7013 205.007 67.9013C206.614 65.1013 207.417 62.0013 207.417 58.8013C207.417 53.5013 205.509 49.1013 201.491 45.5013C197.474 41.8013 192.653 40.0013 186.827 40.0013L164.229 40.1013C163.425 40.1013 162.722 40.4013 162.12 41.0013C161.517 41.6013 161.316 42.3013 161.316 43.1013V107.201C161.316 108.001 161.517 108.701 162.12 109.201C162.722 109.801 163.425 110.101 164.229 110.101H188.133C193.858 110.101 198.679 108.201 202.697 104.501C206.714 100.801 208.823 96.3013 208.823 91.1013C208.823 87.6013 207.819 84.4013 206.011 81.4013Z" fill="#FFF3E0"/>
<path d="M266.777 42.9998C266.777 43.7998 266.475 44.4998 265.973 45.0998C265.371 45.6998 264.668 45.8998 263.864 45.8998H227.907V72.0998H254.825C255.628 72.0998 256.331 72.3998 256.833 72.9998C257.436 73.5998 257.737 74.1998 257.737 74.9998C257.737 75.8998 257.436 76.4998 256.833 77.0998C256.331 77.6998 255.628 77.9998 254.825 77.9998H227.907V107.2C227.907 108 227.606 108.7 227.003 109.2C226.401 109.8 225.698 110.1 224.894 110.1C224.091 110.1 223.388 109.8 222.885 109.2C222.283 108.7 221.981 108 221.981 107.2V42.8998C221.981 42.0998 222.283 41.3998 222.885 40.8998C223.488 40.2998 224.191 39.9998 224.894 39.9998L263.864 40.0998C264.668 40.0998 265.371 40.3998 265.973 40.9998C266.475 41.5998 266.777 42.1998 266.777 42.9998Z" fill="#FFF3E0"/>
<path d="M282.044 43.1994V107.199C282.044 107.999 281.743 108.699 281.14 109.199C280.638 109.799 279.935 110.099 279.131 110.099C278.328 110.099 277.625 109.799 277.022 109.199C276.419 108.699 276.118 107.999 276.118 107.199V43.1994C276.118 42.3994 276.419 41.6994 277.022 41.1994C277.625 40.5994 278.328 40.2994 279.131 40.2994C279.935 40.2994 280.638 40.5994 281.14 41.1994C281.743 41.6994 282.044 42.3994 282.044 43.1994Z" fill="#FFF3E0"/>
<path fill-rule="evenodd" clip-rule="evenodd" d="M400.058 77.799C399.355 89.299 394.434 99.599 386.8 107.199C378.464 115.399 367.114 120.499 354.459 120.499C349.94 120.499 345.621 119.799 341.503 118.599C326.939 110.699 316.996 95.399 316.594 77.799H400.058Z" fill="#069EA9"/>
<path fill-rule="evenodd" clip-rule="evenodd" d="M336.285 62.7014C331.665 62.7014 327.838 59.0014 327.838 54.3014C327.838 49.6014 331.665 45.8014 336.285 45.8014C341.005 45.8014 344.822 49.6014 344.822 54.3014C344.822 59.0014 341.005 62.7014 336.285 62.7014ZM379.373 30.5014C383.481 32.8014 387.307 35.7014 390.612 39.0014C394.328 42.6014 397.351 46.8014 399.752 51.3014V51.4014L399.661 51.5014V51.6014L399.561 51.9014L399.46 52.0014L399.35 52.3014V52.4014L399.26 52.5014V52.6014L398.948 53.2014V53.3014L398.848 53.4014V53.5014L398.757 53.6014V53.8014L398.657 53.9014V54.1014L398.356 54.6014V54.8014L398.145 55.2014L397.853 56.1014V56.2014H397.743V56.5014L397.642 56.6014V56.7014L397.552 56.8014L397.351 57.5014V57.7014L397.15 58.1014V58.3014L397.05 58.4014C394.73 52.5014 391.224 47.3014 386.795 42.9014C378.459 34.7014 367.109 29.6014 354.464 29.6014H353.962C333.874 34.2014 318.598 51.3014 316.699 72.2014H400.254V70.8014L400.364 70.7014V69.7014L400.465 69.3014V68.8014L400.555 68.7014L400.656 67.6014V67.4014L400.766 67.3014V66.8014L400.867 66.6014V66.4014L401.057 65.4014V65.1014L401.168 64.9014V64.7014L401.268 64.5014V64.1014L401.359 64.0014V63.8014L401.459 63.6014V63.2014H401.57V62.8014L401.67 62.6014V62.5014L401.77 62.3014V62.1014L401.861 61.9014V61.7014L401.971 61.6014V61.4014L402.072 61.2014V61.0014L402.172 60.9014V60.6014L402.263 60.5014V60.3014L402.373 60.1014V60.0014L402.474 59.9014V59.6014L402.574 59.5014L402.664 59.3014V59.0014L402.765 58.8014L402.875 58.7014V58.5014C403.779 56.0014 404.884 53.5014 406.19 51.2014C400.063 41.4014 390.612 33.9014 379.373 30.5014Z" fill="#069EA9"/>
<path fill-rule="evenodd" clip-rule="evenodd" d="M406.992 100.401C398.846 114.601 383.69 124.301 366.114 124.701C375.545 122.501 383.991 117.701 390.721 111.101C396.144 105.601 400.363 99.0013 402.874 91.6013C403.968 94.7013 405.274 97.6013 406.992 100.401Z" fill="#069EA9"/>
<path fill-rule="evenodd" clip-rule="evenodd" d="M413.418 76.5007C413.418 82.8007 412.212 88.8007 410.003 94.2007C407.19 88.4007 405.674 81.9007 405.674 75.0007C405.674 68.7007 406.99 62.7007 409.3 57.2007C412.011 63.1007 413.418 69.6007 413.418 76.5007Z" fill="#069EA9"/>
<path fill-rule="evenodd" clip-rule="evenodd" d="M410.003 94.2005C412.212 98.9005 415.226 103.2 418.841 106.9C417.937 108.6 417.033 110.3 416.029 111.9L415.125 111.1C412.011 107.9 409.199 104.3 406.99 100.4C405.272 97.6005 403.966 94.7005 402.872 91.6005C400.361 99.0005 396.142 105.6 390.719 111.1C383.989 117.7 375.543 122.5 366.111 124.7C362.395 125.5 358.478 126 354.461 126C340.299 126 327.543 120.3 318.303 111.1C310.871 103.7 305.748 94.2005 303.93 83.5005H309.565C311.373 92.7005 315.792 100.8 322.22 107.2C327.543 112.5 334.062 116.5 341.504 118.6C345.622 119.8 349.941 120.5 354.461 120.5C367.106 120.5 378.455 115.4 386.792 107.2C394.435 99.6005 399.346 89.3005 400.059 77.8005H303.338C303.338 76.9005 303.237 76.0005 303.237 75.0005C303.237 61.0005 308.952 48.2005 318.303 39.0005C327.543 29.8005 340.299 24.0005 354.461 24.0005C363.5 24.0005 372.037 26.4005 379.369 30.5005C383.477 32.8005 387.304 35.7005 390.608 39.0005C394.324 42.6005 397.348 46.8005 399.748 51.3005V51.4005L399.658 51.5005V51.6005L399.557 51.9005L399.457 52.0005L399.346 52.3005V52.4005L399.256 52.5005V52.6005L398.945 53.2005V53.3005L398.854 53.4005V53.5005L398.754 53.6005V53.8005L398.653 53.9005V54.1005L398.352 54.6005V54.8005L398.141 55.2005L397.85 56.1005V56.2005H397.739V56.5005L397.649 56.6005V56.7005L397.548 56.8005L397.348 57.5005V57.7005L397.147 58.1005V58.3005L397.046 58.4005C394.726 52.5005 391.221 47.3005 386.792 42.9005C378.455 34.7005 367.106 29.6005 354.461 29.6005H353.958C341.595 29.7005 330.345 34.8005 322.22 42.9005C314.587 50.5005 309.565 60.8005 308.862 72.2005H400.25V70.8005L400.361 70.7005V69.7005L400.461 69.3005V68.8005L400.562 68.7005L400.652 67.6005V67.4005L400.762 67.3005V66.8005L400.863 66.6005V66.4005L401.054 65.4005V65.1005L401.164 64.9005V64.7005L401.265 64.5005V64.1005L401.365 64.0005V63.8005L401.455 63.6005V63.2005H401.566V62.8005L401.666 62.6005V62.5005L401.767 62.3005V62.1005L401.857 61.9005V61.7005L401.968 61.6005V61.4005L402.068 61.2005V61.0005L402.169 60.9005V60.6005L402.259 60.5005V60.3005L402.369 60.1005V60.0005L402.47 59.9005V59.6005L402.57 59.5005L402.671 59.3005V59.0005L402.761 58.8005L402.872 58.7005V58.5005C403.776 56.0005 404.88 53.5005 406.186 51.2005C408.496 46.7005 411.61 42.5005 415.125 39.0005L416.029 38.1005C417.033 39.7005 417.937 41.4005 418.841 43.1005C414.814 47.1005 411.61 51.9005 409.3 57.2005C406.99 62.7005 405.674 68.7005 405.674 75.0005C405.674 81.9005 407.19 88.4005 410.003 94.2005Z" fill="#FFF3E0"/>
<path fill-rule="evenodd" clip-rule="evenodd" d="M311.576 32.7998C311.576 37.5998 307.558 41.5998 302.727 41.5998C297.816 41.5998 293.788 37.5998 293.788 32.7998C293.788 27.8998 297.816 23.8998 302.727 23.8998C307.558 23.8998 311.576 27.8998 311.576 32.7998Z" fill="#FFF3E0"/>
<path fill-rule="evenodd" clip-rule="evenodd" d="M319.001 7.10076C319.001 11.0008 315.888 14.2008 311.98 14.2008C307.953 14.2008 304.839 11.0008 304.839 7.10076C304.839 3.20076 307.953 0.000760078 311.98 0.000760078C315.888 0.000760078 319.001 3.20076 319.001 7.10076Z" fill="#FFF3E0"/>
<path fill-rule="evenodd" clip-rule="evenodd" d="M295.6 12.5995C295.6 15.0995 293.702 17.0995 291.191 17.0995C288.77 17.0995 286.761 15.0995 286.761 12.5995C286.761 10.1995 288.77 8.19952 291.191 8.19952C293.702 8.19952 295.6 10.1995 295.6 12.5995Z" fill="#FFF3E0"/>
<path fill-rule="evenodd" clip-rule="evenodd" d="M344.819 54.2982C344.819 58.9982 341.002 62.6982 336.281 62.6982C331.661 62.6982 327.845 58.9982 327.845 54.2982C327.845 49.5982 331.661 45.7982 336.281 45.7982C341.002 45.7982 344.819 49.5982 344.819 54.2982Z" fill="#FFF3E0"/>
</g>
<defs>
<clipPath id="clip0">
<rect width="566" height="126" fill="white"/>
</clipPath>
</defs>
</svg>
