<svg width="133" height="126" viewBox="0 0 133 126" fill="none" xmlns="http://www.w3.org/2000/svg">
<path fill-rule="evenodd" clip-rule="evenodd" d="M114.058 77.799C113.355 89.299 108.434 99.599 100.8 107.199C92.4639 115.399 81.1144 120.499 68.4592 120.499C63.9395 120.499 59.6207 119.799 55.5027 118.599C40.9392 110.699 30.9959 95.399 30.5941 77.799H114.058Z" fill="#069EA9"/>
<path fill-rule="evenodd" clip-rule="evenodd" d="M50.2849 62.7014C45.6648 62.7014 41.8381 59.0014 41.8381 54.3014C41.8381 49.6014 45.6648 45.8014 50.2849 45.8014C55.0055 45.8014 58.8221 49.6014 58.8221 54.3014C58.8221 59.0014 55.0055 62.7014 50.2849 62.7014ZM93.3728 30.5014C97.4807 32.8014 101.307 35.7014 104.612 39.0014C108.328 42.6014 111.351 46.8014 113.752 51.3014V51.4014L113.661 51.5014V51.6014L113.561 51.9014L113.46 52.0014L113.35 52.3014V52.4014L113.26 52.5014V52.6014L112.948 53.2014V53.3014L112.848 53.4014V53.5014L112.757 53.6014V53.8014L112.657 53.9014V54.1014L112.356 54.6014V54.8014L112.145 55.2014L111.853 56.1014V56.2014H111.743V56.5014L111.642 56.6014V56.7014L111.552 56.8014L111.351 57.5014V57.7014L111.15 58.1014V58.3014L111.05 58.4014C108.73 52.5014 105.225 47.3014 100.795 42.9014C92.4588 34.7014 81.1093 29.6014 68.4642 29.6014H67.962C47.8744 34.2014 32.5978 51.3014 30.6995 72.2014H114.254V70.8014L114.364 70.7014V69.7014L114.465 69.3014V68.8014L114.555 68.7014L114.656 67.6014V67.4014L114.766 67.3014V66.8014L114.867 66.6014V66.4014L115.057 65.4014V65.1014L115.168 64.9014V64.7014L115.268 64.5014V64.1014L115.359 64.0014V63.8014L115.459 63.6014V63.2014H115.57V62.8014L115.67 62.6014V62.5014L115.77 62.3014V62.1014L115.861 61.9014V61.7014L115.971 61.6014V61.4014L116.072 61.2014V61.0014L116.172 60.9014V60.6014L116.263 60.5014V60.3014L116.373 60.1014V60.0014L116.474 59.9014V59.6014L116.574 59.5014L116.664 59.3014V59.0014L116.765 58.8014L116.875 58.7014V58.5014C117.779 56.0014 118.884 53.5014 120.19 51.2014C114.063 41.4014 104.612 33.9014 93.3728 30.5014Z" fill="#069EA9"/>
<path fill-rule="evenodd" clip-rule="evenodd" d="M120.992 100.401C112.846 114.601 97.6901 124.301 80.1135 124.701C89.5446 122.501 97.9914 117.701 104.721 111.101C110.144 105.601 114.363 99.0013 116.874 91.6013C117.968 94.7013 119.274 97.6013 120.992 100.401Z" fill="#069EA9"/>
<path fill-rule="evenodd" clip-rule="evenodd" d="M127.418 76.5007C127.418 82.8007 126.212 88.8007 124.003 94.2007C121.19 88.4007 119.674 81.9007 119.674 75.0007C119.674 68.7007 120.99 62.7007 123.3 57.2007C126.011 63.1007 127.418 69.6007 127.418 76.5007Z" fill="#069EA9"/>
<path fill-rule="evenodd" clip-rule="evenodd" d="M124.003 94.2005C126.212 98.9005 129.226 103.2 132.841 106.9C131.937 108.6 131.033 110.3 130.029 111.9L129.125 111.1C126.012 107.9 123.199 104.3 120.99 100.4C119.272 97.6005 117.966 94.7005 116.872 91.6005C114.361 99.0005 110.142 105.6 104.719 111.1C97.9893 117.7 89.5425 122.5 80.1114 124.7C76.3952 125.5 72.4781 126 68.4606 126C54.2989 126 41.5433 120.3 32.303 111.1C24.8706 103.7 19.7483 94.2005 17.9303 83.5005H23.5649C25.3728 92.7005 29.792 100.8 36.2201 107.2C41.5433 112.5 48.0617 116.5 55.5041 118.6C59.6221 119.8 63.9409 120.5 68.4606 120.5C81.1057 120.5 92.4552 115.4 100.792 107.2C108.435 99.6005 113.346 89.3005 114.059 77.8005H17.3377C17.3377 76.9005 17.2373 76.0005 17.2373 75.0005C17.2373 61.0005 22.9522 48.2005 32.303 39.0005C41.5433 29.8005 54.2989 24.0005 68.4606 24.0005C77.5 24.0005 86.0372 26.4005 93.3692 30.5005C97.4771 32.8005 101.304 35.7005 104.608 39.0005C108.324 42.6005 111.348 46.8005 113.748 51.3005V51.4005L113.658 51.5005V51.6005L113.557 51.9005L113.457 52.0005L113.346 52.3005V52.4005L113.256 52.5005V52.6005L112.945 53.2005V53.3005L112.854 53.4005V53.5005L112.754 53.6005V53.8005L112.653 53.9005V54.1005L112.352 54.6005V54.8005L112.141 55.2005L111.85 56.1005V56.2005H111.739V56.5005L111.649 56.6005V56.7005L111.548 56.8005L111.348 57.5005V57.7005L111.147 58.1005V58.3005L111.046 58.4005C108.726 52.5005 105.221 47.3005 100.792 42.9005C92.4552 34.7005 81.1057 29.6005 68.4606 29.6005H67.9584C55.5945 29.7005 44.3455 34.8005 36.2201 42.9005C28.5868 50.5005 23.5649 60.8005 22.8618 72.2005H114.25V70.8005L114.361 70.7005V69.7005L114.461 69.3005V68.8005L114.562 68.7005L114.652 67.6005V67.4005L114.762 67.3005V66.8005L114.863 66.6005V66.4005L115.054 65.4005V65.1005L115.164 64.9005V64.7005L115.265 64.5005V64.1005L115.365 64.0005V63.8005L115.455 63.6005V63.2005H115.566V62.8005L115.666 62.6005V62.5005L115.767 62.3005V62.1005L115.857 61.9005V61.7005L115.968 61.6005V61.4005L116.068 61.2005V61.0005L116.169 60.9005V60.6005L116.259 60.5005V60.3005L116.369 60.1005V60.0005L116.47 59.9005V59.6005L116.57 59.5005L116.671 59.3005V59.0005L116.761 58.8005L116.872 58.7005V58.5005C117.776 56.0005 118.88 53.5005 120.186 51.2005C122.496 46.7005 125.61 42.5005 129.125 39.0005L130.029 38.1005C131.033 39.7005 131.937 41.4005 132.841 43.1005C128.814 47.1005 125.61 51.9005 123.3 57.2005C120.99 62.7005 119.674 68.7005 119.674 75.0005C119.674 81.9005 121.19 88.4005 124.003 94.2005Z" fill="#FFF3E0"/>
<path fill-rule="evenodd" clip-rule="evenodd" d="M25.5759 32.7998C25.5759 37.5998 21.5584 41.5998 16.7273 41.5998C11.8159 41.5998 7.78839 37.5998 7.78839 32.7998C7.78839 27.8998 11.8159 23.8998 16.7273 23.8998C21.5584 23.8998 25.5759 27.8998 25.5759 32.7998Z" fill="#FFF3E0"/>
<path fill-rule="evenodd" clip-rule="evenodd" d="M33.0012 7.10076C33.0012 11.0008 29.8876 14.2008 25.9806 14.2008C21.953 14.2008 18.8394 11.0008 18.8394 7.10076C18.8394 3.20076 21.953 0.000760317 25.9806 0.000760317C29.8876 0.000760317 33.0012 3.20076 33.0012 7.10076Z" fill="#FFF3E0"/>
<path fill-rule="evenodd" clip-rule="evenodd" d="M9.6001 12.5995C9.6001 15.0995 7.7018 17.0995 5.19083 17.0995C2.77025 17.0995 0.761475 15.0995 0.761475 12.5995C0.761475 10.1995 2.77025 8.19952 5.19083 8.19952C7.7018 8.19952 9.6001 10.1995 9.6001 12.5995Z" fill="#FFF3E0"/>
<path fill-rule="evenodd" clip-rule="evenodd" d="M58.8186 54.2982C58.8186 58.9982 55.0019 62.6982 50.2814 62.6982C45.6612 62.6982 41.8446 58.9982 41.8446 54.2982C41.8446 49.5982 45.6612 45.7982 50.2814 45.7982C55.0019 45.7982 58.8186 49.5982 58.8186 54.2982Z" fill="#FFF3E0"/>
</svg>
