<svg width="204" height="268" viewBox="0 0 204 268" fill="none" xmlns="http://www.w3.org/2000/svg">
<path fill-rule="evenodd" clip-rule="evenodd" d="M137.556 -1.63335C168.756 -8.99538 201.13 -32.6752 229.823 -16.4115C259.11 0.188927 280.369 40.6773 279.995 79.1035C279.634 116.223 240.71 134.708 228.02 168.657C217.463 196.897 233.351 237.496 213.365 257.35C193.523 277.06 162.964 264.502 137.556 258.521C116.472 253.557 97.7045 242.02 80.8947 226.162C64.7757 210.956 54.9813 190.372 43.6857 169.966C27.502 140.729 -5.09072 115.52 0.675439 81.2409C6.31916 47.6901 42.9044 37.2025 68.6394 21.6213C90.439 8.42272 113.542 4.03307 137.556 -1.63335Z" fill="#578470"/>
</svg>
