<svg width="88" height="26" viewBox="0 0 88 26" fill="none" xmlns="http://www.w3.org/2000/svg">
<path d="M85.432 13.0654H74.9527V2.55016H80.6687V1.61548H74V14.0001H86.3846V7.45726H85.432V13.0654Z" fill="#FFF3E0"/>
<path d="M82.6174 0V0.953172H86.4686L79.3846 8.47987L80.019 9.15382L87.1029 1.62715V5.71903H88V0H82.6174Z" fill="#FFF3E0"/>
<path d="M9.91406 10.8945C9.91406 12.1953 9.46875 13.1973 8.57812 13.9004C7.69336 14.5977 6.4248 14.9463 4.77246 14.9463H3.26074V20H1.7666V7.15039H5.09766C8.30859 7.15039 9.91406 8.39844 9.91406 10.8945ZM3.26074 13.6631H4.60547C5.92969 13.6631 6.8877 13.4492 7.47949 13.0215C8.07129 12.5938 8.36719 11.9082 8.36719 10.9648C8.36719 10.1152 8.08887 9.48242 7.53223 9.06641C6.97559 8.65039 6.1084 8.44238 4.93066 8.44238H3.26074V13.6631ZM16.7871 10.1914C17.2148 10.1914 17.5986 10.2266 17.9385 10.2969L17.7363 11.6504C17.3379 11.5625 16.9863 11.5186 16.6816 11.5186C15.9023 11.5186 15.2344 11.835 14.6777 12.4678C14.127 13.1006 13.8516 13.8887 13.8516 14.832V20H12.3926V10.3672H13.5967L13.7637 12.1514H13.834C14.1914 11.5244 14.6221 11.041 15.126 10.7012C15.6299 10.3613 16.1836 10.1914 16.7871 10.1914ZM23.8096 20.1758C22.3857 20.1758 21.2607 19.7422 20.4346 18.875C19.6143 18.0078 19.2041 16.8037 19.2041 15.2627C19.2041 13.71 19.585 12.4766 20.3467 11.5625C21.1143 10.6484 22.1426 10.1914 23.4316 10.1914C24.6387 10.1914 25.5938 10.5898 26.2969 11.3867C27 12.1777 27.3516 13.2236 27.3516 14.5244V15.4473H20.7158C20.7451 16.5781 21.0293 17.4365 21.5684 18.0225C22.1133 18.6084 22.8779 18.9014 23.8623 18.9014C24.8994 18.9014 25.9248 18.6846 26.9385 18.251V19.5518C26.4229 19.7744 25.9336 19.9326 25.4707 20.0264C25.0137 20.126 24.46 20.1758 23.8096 20.1758ZM23.4141 11.4131C22.6406 11.4131 22.0225 11.665 21.5596 12.1689C21.1025 12.6729 20.833 13.3701 20.751 14.2607H25.7871C25.7871 13.3408 25.582 12.6377 25.1719 12.1514C24.7617 11.6592 24.1758 11.4131 23.4141 11.4131ZM31.957 20L28.3008 10.3672H29.8652L31.9395 16.0801C32.4082 17.416 32.6836 18.2832 32.7656 18.6816H32.8359C32.9004 18.3711 33.1025 17.7295 33.4424 16.7568C33.7881 15.7783 34.5586 13.6484 35.7539 10.3672H37.3184L33.6621 20H31.957ZM40.3242 20H38.8652V10.3672H40.3242V20ZM38.7422 7.75684C38.7422 7.42285 38.8242 7.17969 38.9883 7.02734C39.1523 6.86914 39.3574 6.79004 39.6035 6.79004C39.8379 6.79004 40.04 6.86914 40.21 7.02734C40.3799 7.18555 40.4648 7.42871 40.4648 7.75684C40.4648 8.08496 40.3799 8.33105 40.21 8.49512C40.04 8.65332 39.8379 8.73242 39.6035 8.73242C39.3574 8.73242 39.1523 8.65332 38.9883 8.49512C38.8242 8.33105 38.7422 8.08496 38.7422 7.75684ZM47.4873 20.1758C46.0635 20.1758 44.9385 19.7422 44.1123 18.875C43.292 18.0078 42.8818 16.8037 42.8818 15.2627C42.8818 13.71 43.2627 12.4766 44.0244 11.5625C44.792 10.6484 45.8203 10.1914 47.1094 10.1914C48.3164 10.1914 49.2715 10.5898 49.9746 11.3867C50.6777 12.1777 51.0293 13.2236 51.0293 14.5244V15.4473H44.3936C44.4229 16.5781 44.707 17.4365 45.2461 18.0225C45.791 18.6084 46.5557 18.9014 47.54 18.9014C48.5771 18.9014 49.6025 18.6846 50.6162 18.251V19.5518C50.1006 19.7744 49.6113 19.9326 49.1484 20.0264C48.6914 20.126 48.1377 20.1758 47.4873 20.1758ZM47.0918 11.4131C46.3184 11.4131 45.7002 11.665 45.2373 12.1689C44.7803 12.6729 44.5107 13.3701 44.4287 14.2607H49.4648C49.4648 13.3408 49.2598 12.6377 48.8496 12.1514C48.4395 11.6592 47.8535 11.4131 47.0918 11.4131ZM61.3916 20L59.625 14.3486C59.5137 14.0029 59.3057 13.2178 59.001 11.9932H58.9307C58.6963 13.0186 58.4912 13.8096 58.3154 14.3662L56.4961 20H54.8086L52.1807 10.3672H53.71C54.3311 12.7871 54.8027 14.6299 55.125 15.8955C55.4531 17.1611 55.6406 18.0137 55.6875 18.4531H55.7578C55.8223 18.1191 55.9248 17.6885 56.0654 17.1611C56.2119 16.6279 56.3379 16.2061 56.4434 15.8955L58.21 10.3672H59.792L61.5146 15.8955C61.8428 16.9033 62.0654 17.75 62.1826 18.4355H62.2529C62.2764 18.2246 62.3379 17.8994 62.4375 17.46C62.543 17.0205 63.1553 14.6562 64.2744 10.3672H65.7861L63.123 20H61.3916Z" fill="#FFF3E0"/>
</svg>
